<svg xmlns="http://www.w3.org/2000/svg" xmlns:xlink="http://www.w3.org/1999/xlink" viewBox="0 0 128 128"><defs><linearGradient id="a"><stop offset="0" stop-color="#1c1c1c"/><stop offset=".5" stop-color="#888"/><stop offset="1"/></linearGradient><linearGradient id="b" gradientUnits="userSpaceOnUse" x1="37.688" x2="90.312" xlink:href="#a" y1="63.001" y2="63.001"/><linearGradient id="c" gradientUnits="userSpaceOnUse" x1="63.97" x2="63.97" xlink:href="#a" y1="22.506" y2="93.318"/></defs><path d="M50.893 3.281V.487z" fill="#fff" fill-opacity=".757"/><path d="M38.032 32.688h51.875l.375 15.5h-2.25c-1.07-4.883-2.432-7.845-4.082-9.32-1.652-1.475-5.125-1.835-10.418-1.835h-5.168l-.055 46.28c0 3.539.764 5.73 1.85 6.578 1.084.848 3.459 1.406 7.123 1.672v1.75H50.658v-1.75c3.908-.295 6.344-.93 7.307-1.902.96-.973 1.443-3.422 1.443-7.348v-45.28h-5c-5.072 0-8.525.352-10.361 1.81-1.836 1.462-3.215 4.43-4.14 9.345h-2.25z" fill="url(#c)" transform="matrix(1.79588 0 0 1.84742 -50.69 -52.389)"/></svg>