<svg xmlns="http://www.w3.org/2000/svg" viewBox="0 0 1000 1000"><path d="M989.7 280.2c1.3-9.1-1-18.3-6.4-25.7-5.4-7.4-13.4-12.2-22.3-13.5l-90.2-13.3-16.4-91.3c-3.4-18.8-21.1-31.3-39.4-27.8l-330.2 62.2L228 132.9c-18.5-2.7-35.7 10.4-38.4 29.3l-9.3 65.8-142.6 26.9c-8.9 1.7-16.7 6.8-21.8 14.4-5.1 7.5-7 16.9-5.4 25.9l102.3 568.4c1.6 9 6.7 17 14.1 22.2 5.7 4 12.4 6.1 19.2 6.1 2.1 0 4.1-.2 6.1-.6l454.2-85.5 269.1 39.7c1.6.2 3.3.4 4.9.4 16.6 0 31.1-12.5 33.5-29.7l9.9-70.1 5.7-1.1c18.4-3.5 30.5-21.5 27.2-40.3l-15.1-84 48.1-340.5zm-195.8-97.3l6.2 34.3-105.6-15.6 99.4-18.7zm-663.2 397L83.3 316.7l86.8-16.4-39.4 279.6zM173.4 817l-13.9-77 237.3 35-223.4 42zm729.8-409.3L873 622.1l-9.1 64.9-10.2 72.3-1.8 12.7-36.9-5.4-209.7-30.9-419.4-61.9 54.6-386.7 10.2-72.4 1.2-8.5 24.6 3.6 209.7 30.9 327 48.3 70.7 10.4 34 5-14.7 103.3z"/><path d="M392 449c35.6 5.2 68.6-20 73.7-56.3 5.1-36.4-19.5-70.1-55.1-75.3-35.6-5.3-68.6 20-73.7 56.3-5.2 36.3 19.5 70.1 55.1 75.3zM773 495.4l-61.7 65.4L633.4 404 485.5 577.7s-194.4-80-247.9 58.8l501.9 74 74.2 10.9-4.3-24.1L773 495.4z"/></svg>