<svg xmlns="http://www.w3.org/2000/svg" viewBox="0 0 600 420"><path fill-rule="evenodd" d="M503.986 182.4C558.766 193.513 600 241.94 600 300c0 66.274-53.726 120-120 120H135C60.442 420 0 359.558 0 285c0-58.85 37.66-108.895 90.191-127.375A153.45 153.45 0 0 1 90 150C90 67.157 157.157 0 240 0c55.582 0 104.102 30.232 130.016 75.15C384.314 65.581 401.504 60 420 60c49.705 0 90 40.295 90 90 0 11.423-2.133 22.346-6.014 32.4zm-183.87 96.668V162.392A13.36 13.36 0 0 0 306.724 149h-13.392a13.36 13.36 0 0 0-13.392 13.392v116.676l-36.604-36.604c-5.245-5.245-13.727-5.245-18.916 0l-9.486 9.486c-5.245 5.245-5.245 13.726 0 18.916l75.608 75.608c5.245 5.245 13.727 5.245 18.916 0l75.608-75.608c5.245-5.245 5.245-13.727 0-18.916l-9.486-9.486c-5.19-5.245-13.67-5.245-18.86 0l-36.604 36.604z"/></svg>